<svg xmlns="http://www.w3.org/2000/svg" version="1.1" xmlns:xlink="http://www.w3.org/1999/xlink" xmlns:svgjs="http://svgjs.com/svgjs" width="1440" height="560" preserveAspectRatio="none" viewBox="0 0 1440 560"><g mask="url(&quot;#SvgjsMask1000&quot;)" fill="none"><rect width="1440" height="560" x="0" y="0" fill="#1e3266"></rect><path d="M1464 560L0 560 L0 375.61Q35.56 339.17, 72 374.73Q84.8 315.53, 144 328.34Q210.4 274.74, 264 341.13Q275.81 280.94, 336 292.74Q410.45 247.19, 456 321.65Q498.47 292.12, 528 334.58Q545.58 280.16, 600 297.74Q669.8 247.55, 720 317.35Q787.9 265.25, 840 333.15Q859.93 281.08, 912 301.02Q964.33 233.35, 1032 285.68Q1137.69 271.38, 1152 377.07Q1206.11 311.17, 1272 365.28Q1290.06 263.33, 1392 281.39Q1437.3 254.69, 1464 299.98z" fill="#182f5d"></path><path d="M1488 560L0 560 L0 412.91Q34.93 375.84, 72 410.77Q108.13 326.9, 192 363.03Q281.57 332.6, 312 422.16Q365.44 355.61, 432 409.05Q454.58 359.63, 504 382.22Q532.53 338.75, 576 367.29Q674.59 345.88, 696 444.46Q712.03 388.49, 768 404.51Q786.48 350.99, 840 369.47Q870.69 328.16, 912 358.85Q987.21 314.06, 1032 389.27Q1092.63 377.9, 1104 438.53Q1132.23 346.76, 1224 374.99Q1298.57 329.56, 1344 404.13Q1400.77 388.9, 1416 445.67Q1417.14 374.81, 1488 375.95z" fill="#25467d"></path><path d="M1512 560L0 560 L0 434.81Q62.9 425.71, 72 488.6Q87.24 431.84, 144 447.08Q192.08 423.16, 216 471.25Q227.91 411.16, 288 423.08Q353.99 369.07, 408 435.06Q501.39 408.45, 528 501.84Q577.49 431.32, 648 480.81Q674.19 435, 720 461.19Q762.24 383.43, 840 425.67Q881.81 395.48, 912 437.28Q960.56 413.84, 984 462.4Q1030.62 437.01, 1056 483.63Q1127.56 435.19, 1176 506.75Q1182.76 441.51, 1248 448.27Q1274.62 402.88, 1320 429.5Q1403.3 392.8, 1440 476.1Q1482.06 446.16, 1512 488.22z" fill="#356cb1"></path><path d="M1512 560L0 560 L0 534.44Q49.97 512.41, 72 562.38Q107.61 477.99, 192 513.59Q217.44 467.04, 264 492.48Q362.39 470.87, 384 569.26Q425.75 491.01, 504 532.77Q527.28 484.05, 576 507.34Q618.38 477.72, 648 520.09Q699.74 499.83, 720 551.57Q735.07 494.64, 792 509.71Q822.52 468.23, 864 498.75Q965.5 480.25, 984 581.74Q1021.05 498.79, 1104 535.83Q1132.32 492.14, 1176 520.46Q1265.8 490.26, 1296 580.06Q1323.05 535.11, 1368 562.16Q1393.57 515.72, 1440 541.29Q1470.58 499.87, 1512 530.45z" fill="white"></path></g><defs><mask id="SvgjsMask1000"><rect width="1440" height="560" fill="#ffffff"></rect></mask></defs></svg>